# Blender 4.2.2 LTS
# www.blender.org
mtllib nave.mtl
o Cube
v 1.000000 1.000000 -1.000000
v 1.000000 -1.000000 -1.000000
v 0.700000 1.000000 1.000000
v 1.000000 -1.000000 1.000000
v -1.000000 1.000000 -1.000000
v -1.000000 -1.000000 -1.000000
v -0.700000 1.000000 1.000000
v -1.000000 -1.000000 1.000000
v -1.000000 -1.000000 3.000000
v -1.000000 1.000000 3.000000
v 1.000000 1.000000 3.000000
v 1.000000 -1.000000 3.000000
v -0.683554 -0.683554 7.000000
v -0.683554 0.683554 7.000000
v 0.683554 0.683554 7.000000
v 0.683554 -0.683554 7.000000
v 1.000000 -1.000000 -3.000000
v -1.000000 -1.000000 -3.000000
v 1.000000 1.000000 -3.000000
v -1.000000 1.000000 -3.000000
v 0.088623 -0.088623 -5.000000
v -0.088623 -0.088623 -5.000000
v 0.088623 0.088623 -5.000000
v -0.088623 0.088623 -5.000000
v -2.000000 -1.000000 -1.000000
v -2.000000 -1.000000 1.000000
v -2.000000 1.000000 1.000000
v -2.000000 1.000000 -1.000000
v -2.000000 -1.000000 3.000000
v -2.000000 1.000000 3.000000
v -2.000000 -1.000000 5.000000
v -2.000000 1.000000 5.000000
v 2.000000 1.000000 -1.000000
v 2.000000 -1.000000 -1.000000
v 2.000000 1.000000 1.000000
v 2.000000 -1.000000 1.000000
v 2.000000 1.000000 3.000000
v 2.000000 -1.000000 3.000000
v 2.000000 1.000000 5.000000
v 2.000000 -1.000000 5.000000
v 2.000000 1.200000 1.000000
v 1.000000 1.200000 1.000000
v 1.000000 1.200000 -1.000000
v 1.180000 1.380000 3.000000
v 1.820000 1.380000 3.000000
v 1.000000 1.200000 5.000000
v 2.000000 1.200000 -1.000000
v 2.000000 1.200000 5.000000
v -1.000000 1.200000 1.000000
v -1.000000 1.200000 -1.000000
v -1.180000 1.380000 3.000000
v -1.000000 1.200000 5.000000
v -2.000000 1.200000 1.000000
v -2.000000 1.200000 -1.000000
v -1.820000 1.380000 3.000000
v -2.000000 1.200000 5.000000
v 4.000000 1.000000 4.000000
v 4.000000 1.000000 2.000000
v 4.000000 1.000000 6.000000
v 4.000000 1.200000 4.000000
v 4.000000 1.200000 2.000000
v 4.000000 1.200000 6.000000
v 6.000000 0.000000 6.000000
v 6.000000 0.000000 4.000000
v 6.000000 0.000000 7.000000
v 6.000000 0.200000 6.000000
v 6.000000 0.200000 4.000000
v 6.000000 0.200000 7.000000
v -4.000000 1.000000 2.000000
v -4.000000 1.000000 4.000000
v -4.000000 1.000000 6.000000
v -4.000000 1.200000 2.000000
v -4.000000 1.200000 4.000000
v -4.000000 1.200000 6.000000
v -6.000000 0.000000 4.000000
v -6.000000 0.000000 6.000000
v -6.000000 0.000000 7.000000
v -6.000000 0.200000 4.000000
v -6.000000 0.200000 6.000000
v -6.000000 0.200000 7.000000
v 1.180000 1.820000 3.000000
v 1.820000 1.820000 3.000000
v 1.000000 1.500000 5.000000
v 2.000000 1.500000 5.000000
v -1.180000 1.820000 3.000000
v -1.000000 1.500000 5.000000
v -1.820000 1.820000 3.000000
v -2.000000 1.500000 5.000000
v 1.000000 1.200000 3.000000
v 2.000000 1.200000 3.000000
v 1.000000 2.000000 3.000000
v 2.000000 2.000000 3.000000
v 1.000000 1.200000 3.000000
v 2.000000 1.200000 3.000000
v 1.000000 2.000000 3.000000
v 2.000000 2.000000 3.000000
v 1.000000 1.200000 3.000000
v 2.000000 1.200000 3.000000
v 1.000000 2.000000 3.000000
v 2.000000 2.000000 3.000000
v -2.000000 1.200000 3.000000
v -1.000000 1.200000 3.000000
v -2.000000 2.000000 3.000000
v -1.000000 2.000000 3.000000
v 1.180000 1.380000 3.500000
v 1.820000 1.380000 3.500000
v 1.180000 1.820000 3.500000
v 1.820000 1.820000 3.500000
v -1.820000 1.380000 3.500000
v -1.180000 1.380000 3.500000
v -1.820000 1.820000 3.500000
v -1.180000 1.820000 3.500000
v 0.700000 1.200000 3.000000
v -0.700000 1.200000 3.000000
v 0.700000 1.200000 5.000000
v -0.700000 1.200000 5.000000
v 0.070000 3.400000 4.000000
v -0.070000 3.400000 4.000000
v 0.070000 3.400000 6.000000
v -0.070000 3.400000 6.000000
v 0.700000 1.500000 1.000000
v -0.700000 1.500000 1.000000
v 1.000000 1.900000 -1.000000
v -1.000000 1.900000 -1.000000
v -0.700000 1.500000 -2.930056
v 0.700000 1.500000 -2.930056
v 1.000000 -1.000000 -2.533708
v 1.000000 1.000000 -2.533708
v -1.000000 1.000000 -2.533708
v -1.000000 -1.000000 -2.533708
v 0.700000 1.900000 -2.603652
v -0.700000 1.900000 -2.603652
v -1.000000 -1.000000 7.000000
v -1.000000 1.000000 7.000000
v 1.000000 1.000000 7.000000
v 1.000000 -1.000000 7.000000
v -0.683554 -0.683554 5.000000
v -0.683554 0.683554 5.000000
v 0.683554 0.683554 5.000000
v 0.683554 -0.683554 5.000000
vn -0.9889 -0.0000 0.1483
vn -0.0000 -1.0000 -0.0000
vn -0.8944 -0.0000 0.4472
vn 1.0000 -0.0000 -0.0000
vn -0.0000 1.0000 -0.0000
vn -1.0000 -0.0000 -0.0000
vn 0.1952 0.9759 0.0976
vn -0.5547 0.8321 -0.0000
vn -0.9100 -0.0000 -0.4147
vn 0.9010 0.2742 -0.3361
vn -0.0000 -0.0000 -1.0000
vn -0.0000 -0.9100 -0.4147
vn -0.0000 0.9100 -0.4147
vn 0.9100 -0.0000 -0.4147
vn -0.0000 -0.0000 1.0000
vn 0.4472 -0.0000 0.8944
vn -0.5528 0.8292 0.0829
vn 0.8944 -0.0000 0.4472
vn 0.4472 -0.0000 -0.8944
vn 0.5528 0.8292 -0.0829
vn 0.4472 0.8944 -0.0000
vn -0.4472 -0.0000 0.8944
vn -0.4472 -0.8944 -0.0000
vn 0.7071 -0.0000 -0.7071
vn -0.4472 0.8944 -0.0000
vn -0.4472 -0.0000 -0.8944
vn -0.7071 -0.0000 -0.7071
vn 0.4472 -0.8944 -0.0000
vn -0.0000 0.9701 0.2425
vn -0.0000 0.4138 -0.9104
vn 0.5547 0.8321 -0.0000
vn -0.0000 0.9950 0.0995
vn -0.9614 0.2753 -0.0000
vn -0.0000 -0.4138 0.9104
vn 0.9614 0.2753 -0.0000
vn -0.0000 0.9806 0.1961
vn -0.0000 0.6322 -0.7748
vn -0.0000 0.1385 -0.9904
vn 0.9889 -0.0000 0.1483
vn -0.9380 0.2990 -0.1755
vn -0.8575 0.5145 -0.0000
vn 0.8575 0.5145 -0.0000
vn -0.1952 0.9759 0.0976
vn -0.5528 0.8292 -0.0829
vn 0.5528 0.8292 0.0829
vn -0.9010 0.2742 -0.3361
vn 0.9380 0.2990 -0.1755
vt 0.875000 0.500000
vt 0.875000 0.750000
vt 0.375000 0.750000
vt 0.125000 0.750000
vt 0.625000 1.000000
vt 0.375000 1.000000
vt 0.375000 0.500000
vt 0.125000 0.500000
vt 0.625000 0.500000
vt 0.625000 0.750000
vt 0.414556 0.789556
vt 0.414556 0.960444
vt 0.625000 0.250000
vt 0.375000 0.250000
vt 0.625000 0.000000
vt 0.375000 0.000000
vt 0.625000 0.750000
vt 0.875000 0.750000
vt 0.000000 0.000000
vt 0.875000 0.750000
vt 0.585444 0.960444
vt 0.585444 0.789556
s 0
usemtl Material
f 5/1/1 122/2/1 124/1/1
f 4/3/2 9/4/2 8/4/2
f 134/5/3 31/6/3 133/6/3
f 2/7/2 8/4/2 6/8/2
f 12/3/2 40/3/2 136/3/2
f 127/7/4 19/9/4 128/9/4
f 12/3/2 133/4/2 9/4/2
f 7/2/5 11/10/5 3/10/5
f 11/10/6 46/10/6 89/10/6
f 8/4/2 25/8/2 6/8/2
f 16/11/5 137/12/5 13/12/5
f 39/10/7 46/10/7 135/10/7
f 10/2/8 116/2/8 114/2/8
f 9/4/2 26/4/2 8/4/2
f 20/13/9 22/14/9 18/14/9
f 129/13/6 18/14/6 130/14/6
f 130/8/2 17/7/2 127/7/2
f 128/9/10 126/9/10 131/9/10
f 24/13/11 21/7/11 22/14/11
f 18/8/12 21/7/12 17/7/12
f 19/9/13 24/1/13 20/1/13
f 17/7/14 23/9/14 19/9/14
f 27/15/6 25/14/6 26/16/6
f 26/16/6 30/15/6 27/15/6
f 29/16/6 32/15/6 30/15/6
f 32/5/15 52/5/15 56/5/15
f 28/13/11 50/13/11 5/13/11
f 56/5/16 71/5/16 32/5/16
f 6/14/11 28/13/11 5/13/11
f 9/4/2 31/4/2 29/4/2
f 33/9/4 36/3/4 34/7/4
f 35/10/4 38/3/4 36/3/4
f 37/10/4 40/3/4 38/3/4
f 1/9/11 34/7/11 2/7/11
f 2/7/2 36/3/2 4/3/2
f 11/10/17 42/10/17 3/10/17
f 4/3/2 38/3/2 12/3/2
f 136/3/18 39/10/18 135/10/18
f 48/10/15 83/10/15 46/10/15
f 89/10/5 41/10/5 42/10/5
f 42/10/5 47/9/5 43/9/5
f 41/10/19 58/10/19 35/10/19
f 1/9/11 47/9/11 33/9/11
f 1/9/6 42/10/6 43/9/6
f 33/9/4 41/10/4 35/10/4
f 48/10/5 60/10/5 90/10/5
f 50/1/5 53/2/5 49/2/5
f 49/2/5 101/2/5 102/2/5
f 101/2/6 88/2/6 103/2/6
f 101/2/5 72/2/5 73/2/5
f 5/1/20 49/2/20 7/2/20
f 10/2/4 49/2/4 102/2/4
f 10/2/4 52/2/4 134/2/4
f 27/15/6 54/13/6 28/13/6
f 60/10/21 67/10/21 61/10/21
f 59/10/22 68/10/22 62/10/22
f 37/10/2 58/10/2 57/10/2
f 39/10/22 62/10/22 48/10/22
f 90/10/5 61/10/5 41/10/5
f 39/10/2 57/10/2 59/10/2
f 64/10/4 66/10/4 63/10/4
f 63/10/4 68/10/4 65/10/4
f 57/10/23 64/10/23 63/10/23
f 58/10/24 67/10/24 64/10/24
f 62/10/21 66/10/21 60/10/21
f 59/10/23 63/10/23 65/10/23
f 73/2/25 78/2/25 79/2/25
f 71/5/16 80/5/16 77/5/16
f 30/15/2 69/15/2 27/15/2
f 56/2/5 73/2/5 74/2/5
f 32/15/2 70/15/2 30/15/2
f 27/15/26 72/15/26 53/15/26
f 76/15/6 78/15/6 75/15/6
f 77/15/6 79/15/6 76/15/6
f 69/15/27 78/15/27 72/15/27
f 70/15/28 75/15/28 69/15/28
f 74/2/25 79/2/25 80/2/25
f 71/15/28 76/15/28 70/15/28
f 83/10/29 92/10/29 91/10/29
f 89/10/6 83/10/6 91/10/6
f 81/17/4 105/10/4 44/10/4
f 90/10/4 84/10/4 48/10/4
f 104/2/29 88/2/29 86/2/29
f 52/5/15 88/5/15 56/5/15
f 102/2/4 86/2/4 52/2/4
f 55/18/5 110/18/5 51/18/5
f 93/10/5 90/10/5 89/10/5
f 96/10/5 91/10/5 92/10/5
f 95/19/5 89/19/5 91/19/5
f 94/19/5 92/19/5 90/19/5
f 97/10/5 94/10/5 93/10/5
f 100/10/5 95/10/5 96/10/5
f 99/19/5 93/19/5 95/19/5
f 98/19/5 96/19/5 94/19/5
f 45/10/11 97/10/11 44/10/11
f 81/17/11 100/10/11 82/10/11
f 44/10/11 99/10/11 81/17/11
f 82/10/11 98/10/11 45/10/11
f 51/18/11 101/2/11 55/18/11
f 87/20/11 104/2/11 85/18/11
f 55/18/11 103/2/11 87/20/11
f 85/18/11 102/2/11 51/18/11
f 105/10/11 108/10/11 106/10/11
f 44/10/5 106/10/5 45/10/5
f 45/10/6 108/10/6 82/10/6
f 82/10/2 107/17/2 81/17/2
f 109/18/11 112/18/11 110/18/11
f 51/18/6 112/18/6 85/18/6
f 85/18/2 111/20/2 87/20/2
f 87/20/4 109/18/4 55/18/4
f 114/2/30 117/10/30 113/10/30
f 10/2/11 113/10/11 11/10/11
f 11/10/31 115/10/31 135/10/31
f 135/10/32 116/5/32 134/5/32
f 118/2/5 119/10/5 117/10/5
f 116/2/33 118/2/33 114/2/33
f 115/10/34 120/5/34 116/5/34
f 115/10/35 117/10/35 119/10/35
f 124/1/36 121/10/36 123/9/36
f 131/9/37 125/1/37 132/1/37
f 20/1/38 126/9/38 19/9/38
f 1/9/39 121/10/39 3/10/39
f 129/13/40 124/13/40 132/13/40
f 3/10/15 122/2/15 7/2/15
f 129/13/41 125/13/41 20/13/41
f 123/9/5 132/1/5 124/1/5
f 128/9/4 123/9/4 1/9/4
f 6/8/2 127/7/2 2/7/2
f 5/13/6 130/14/6 6/14/6
f 2/7/4 128/9/4 1/9/4
f 14/21/15 133/6/15 13/12/15
f 16/11/15 135/10/15 15/22/15
f 15/22/15 134/5/15 14/21/15
f 13/12/15 136/3/15 16/11/15
f 139/22/15 137/12/15 140/11/15
f 15/22/6 140/11/6 16/11/6
f 14/21/2 139/22/2 15/22/2
f 13/12/4 138/21/4 14/21/4
f 5/1/1 7/2/1 122/2/1
f 4/3/2 12/3/2 9/4/2
f 134/5/3 32/5/3 31/6/3
f 2/7/2 4/3/2 8/4/2
f 12/3/2 38/3/2 40/3/2
f 127/7/4 17/7/4 19/9/4
f 12/3/2 136/3/2 133/4/2
f 7/2/5 10/2/5 11/10/5
f 11/10/6 135/10/6 46/10/6
f 8/4/2 26/4/2 25/8/2
f 16/11/5 140/11/5 137/12/5
f 39/10/15 48/10/15 46/10/15
f 10/2/8 134/2/8 116/2/8
f 9/4/2 29/4/2 26/4/2
f 20/13/9 24/13/9 22/14/9
f 129/13/6 20/13/6 18/14/6
f 130/8/2 18/8/2 17/7/2
f 128/9/42 19/9/42 126/9/42
f 24/13/11 23/9/11 21/7/11
f 18/8/12 22/8/12 21/7/12
f 19/9/13 23/9/13 24/1/13
f 17/7/14 21/7/14 23/9/14
f 27/15/6 28/13/6 25/14/6
f 26/16/6 29/16/6 30/15/6
f 29/16/6 31/16/6 32/15/6
f 32/5/43 134/5/43 52/5/43
f 28/13/11 54/13/11 50/13/11
f 56/5/16 74/5/16 71/5/16
f 6/14/11 25/14/11 28/13/11
f 9/4/2 133/4/2 31/4/2
f 33/9/4 35/10/4 36/3/4
f 35/10/4 37/10/4 38/3/4
f 37/10/4 39/10/4 40/3/4
f 1/9/11 33/9/11 34/7/11
f 2/7/2 34/7/2 36/3/2
f 11/10/6 89/10/6 42/10/6
f 4/3/2 36/3/2 38/3/2
f 136/3/18 40/3/18 39/10/18
f 48/10/15 84/10/15 83/10/15
f 89/10/5 90/10/5 41/10/5
f 42/10/5 41/10/5 47/9/5
f 41/10/19 61/10/19 58/10/19
f 1/9/11 43/9/11 47/9/11
f 1/9/44 3/10/44 42/10/44
f 33/9/4 47/9/4 41/10/4
f 48/10/5 62/10/5 60/10/5
f 50/1/5 54/1/5 53/2/5
f 49/2/5 53/2/5 101/2/5
f 101/2/6 56/2/6 88/2/6
f 101/2/5 53/2/5 72/2/5
f 5/1/4 50/1/4 49/2/4
f 10/2/45 7/2/45 49/2/45
f 10/2/4 102/2/4 52/2/4
f 27/15/6 53/15/6 54/13/6
f 60/10/21 66/10/21 67/10/21
f 59/10/22 65/10/22 68/10/22
f 37/10/2 35/10/2 58/10/2
f 39/10/22 59/10/22 62/10/22
f 90/10/5 60/10/5 61/10/5
f 39/10/2 37/10/2 57/10/2
f 64/10/4 67/10/4 66/10/4
f 63/10/4 66/10/4 68/10/4
f 57/10/23 58/10/23 64/10/23
f 58/10/24 61/10/24 67/10/24
f 62/10/21 68/10/21 66/10/21
f 59/10/23 57/10/23 63/10/23
f 73/2/25 72/2/25 78/2/25
f 71/5/16 74/5/16 80/5/16
f 30/15/2 70/15/2 69/15/2
f 56/2/5 101/2/5 73/2/5
f 32/15/2 71/15/2 70/15/2
f 27/15/26 69/15/26 72/15/26
f 76/15/6 79/15/6 78/15/6
f 77/15/6 80/15/6 79/15/6
f 69/15/27 75/15/27 78/15/27
f 70/15/28 76/15/28 75/15/28
f 74/2/25 73/2/25 79/2/25
f 71/15/28 77/15/28 76/15/28
f 83/10/29 84/10/29 92/10/29
f 89/10/6 46/10/6 83/10/6
f 81/17/4 107/17/4 105/10/4
f 90/10/4 92/10/4 84/10/4
f 104/2/29 103/2/29 88/2/29
f 52/5/15 86/5/15 88/5/15
f 102/2/4 104/2/4 86/2/4
f 55/18/5 109/18/5 110/18/5
f 93/10/5 94/10/5 90/10/5
f 96/10/5 95/10/5 91/10/5
f 95/19/5 93/19/5 89/19/5
f 94/19/5 96/19/5 92/19/5
f 97/10/5 98/10/5 94/10/5
f 100/10/5 99/10/5 95/10/5
f 99/19/5 97/19/5 93/19/5
f 98/19/5 100/19/5 96/19/5
f 45/10/11 98/10/11 97/10/11
f 81/17/11 99/10/11 100/10/11
f 44/10/11 97/10/11 99/10/11
f 82/10/11 100/10/11 98/10/11
f 51/18/11 102/2/11 101/2/11
f 87/20/11 103/2/11 104/2/11
f 55/18/11 101/2/11 103/2/11
f 85/18/11 104/2/11 102/2/11
f 105/10/11 107/17/11 108/10/11
f 44/10/5 105/10/5 106/10/5
f 45/10/6 106/10/6 108/10/6
f 82/10/2 108/10/2 107/17/2
f 109/18/11 111/20/11 112/18/11
f 51/18/6 110/18/6 112/18/6
f 85/18/2 112/18/2 111/20/2
f 87/20/4 111/20/4 109/18/4
f 114/2/30 118/2/30 117/10/30
f 10/2/11 114/2/11 113/10/11
f 11/10/31 113/10/31 115/10/31
f 135/10/32 115/10/32 116/5/32
f 118/2/5 120/2/5 119/10/5
f 116/2/33 120/2/33 118/2/33
f 115/10/34 119/10/34 120/5/34
f 115/10/35 113/10/35 117/10/35
f 124/1/36 122/2/36 121/10/36
f 131/9/37 126/9/37 125/1/37
f 20/1/38 125/1/38 126/9/38
f 1/9/39 123/9/39 121/10/39
f 129/13/6 5/13/6 124/13/6
f 3/10/15 121/10/15 122/2/15
f 129/13/46 132/13/46 125/13/46
f 123/9/5 131/9/5 132/1/5
f 128/9/47 131/9/47 123/9/47
f 6/8/2 130/8/2 127/7/2
f 5/13/6 129/13/6 130/14/6
f 2/7/4 127/7/4 128/9/4
f 14/21/15 134/5/15 133/6/15
f 16/11/15 136/3/15 135/10/15
f 15/22/15 135/10/15 134/5/15
f 13/12/15 133/6/15 136/3/15
f 139/22/15 138/21/15 137/12/15
f 15/22/6 139/22/6 140/11/6
f 14/21/2 138/21/2 139/22/2
f 13/12/4 137/12/4 138/21/4
